# Blender v3.0.1 OBJ File: 'RTeamGameLevel.blend'
# www.blender.org
mtllib FloorTile_InnerCorner_Plane.mtl
o FloorTile_InnerCorner_Plane.228
v -0.851409 0.000000 -1.000000
v -1.000000 0.000000 -1.000000
v -1.000000 0.039729 -1.000000
v -0.851409 0.039729 -1.000000
v -0.851409 0.039729 -0.851421
v -0.833562 0.003127 -0.833834
v -0.833562 0.003127 -1.000000
v -1.000000 0.039729 -0.851421
v -0.833562 0.000000 -1.000000
v -1.000000 0.003127 -0.833562
v 0.685369 0.048272 0.521852
v 0.724740 0.048272 0.521852
v 0.724740 0.048272 -0.176129
v 0.685369 0.048272 -0.176129
v 0.685369 0.030952 0.521852
v 0.724740 0.030952 0.521852
v 0.685369 0.030952 -0.176129
v 0.724740 0.030952 -0.176129
v -0.748192 0.003127 -0.737797
v -0.613790 0.003127 -0.737709
v -0.613790 0.003127 -0.834379
v -1.000000 0.003127 -0.613790
v -0.789925 0.003127 -0.613790
v -0.613790 0.003127 -1.000000
v 0.049601 0.015330 0.778811
v 0.055573 0.041344 0.761350
v -0.375729 0.041344 0.761350
v -0.375729 0.015330 0.778811
v 0.801780 0.000000 1.000000
v 1.000000 0.000000 1.000000
v 1.000000 0.015330 1.000000
v 0.801780 0.015330 1.000000
v -1.000000 0.000000 -0.274022
v -1.000000 0.000000 -0.256347
v -1.000000 0.041344 -0.256347
v -1.000000 0.013947 -0.274022
v -1.000000 0.000000 1.000000
v -0.776151 0.000000 1.000000
v -0.783627 0.015330 1.000000
v -1.000000 0.015330 1.000000
v -0.783626 0.041344 -0.256347
v -0.789925 0.013947 -0.274022
v -0.748192 0.000000 1.000000
v -0.736713 0.015330 1.000000
v -0.736713 0.041344 -0.387588
v -0.748192 0.013947 -0.405263
v -0.783626 0.041344 0.456875
v -0.783627 0.041344 0.796375
v -0.736713 0.041344 0.761350
v -0.736713 0.041344 0.390821
v -1.000000 0.041344 0.456875
v -1.000000 0.041344 0.796375
v -1.000000 0.000000 0.456875
v -1.000000 0.000000 0.796375
v -0.783627 0.015330 0.813100
v -0.736713 0.015330 0.778811
v -1.000000 0.015330 0.813100
v -1.000000 0.000000 0.813100
v -1.000000 0.032483 -0.434430
v -1.000000 0.032483 -0.395275
v -0.849957 0.032483 -0.395275
v -0.870050 0.032483 -0.434430
v -0.787461 0.032483 -0.526516
v -0.810669 0.032483 -0.565671
v -0.810669 -0.002719 -0.590739
v -0.870050 -0.002719 -0.459499
v -1.000000 -0.002719 -0.459499
v -0.434430 0.032483 -0.565741
v -0.459499 -0.002719 -0.590684
v -0.849957 -0.002719 -0.395275
v -0.787461 -0.002719 -0.526516
v -1.000000 -0.002719 -0.395275
v -0.375831 0.041315 0.389274
v -0.379859 0.000000 1.000000
v -0.375729 0.015330 1.000000
v -0.375728 0.041344 -0.387588
v -0.379858 0.013947 -0.405263
v -0.395215 -0.002719 -0.526516
v -0.395215 0.032483 -0.526516
v 0.734891 0.041344 0.761350
v 0.734891 0.041344 0.387588
v 0.006269 0.041344 0.387588
v 0.809953 0.015330 -0.813100
v 0.795277 0.041344 -0.829793
v 0.795277 0.041344 0.272585
v 0.809953 0.013947 0.274022
v 0.738169 0.041344 -0.804437
v 0.000151 0.041344 -0.533378
v 1.000000 0.000000 -0.813100
v 1.000000 0.000000 -1.000000
v 1.000000 0.015330 -1.000000
v 1.000000 0.015330 -0.813100
v -0.001792 0.000000 -1.000000
v -0.256347 0.000000 -1.000000
v -0.256347 0.041344 -1.000000
v -0.001792 0.041344 -1.000000
v -0.274022 0.013947 -0.833834
v -0.256347 0.041344 -0.829793
v -0.274022 0.013947 -1.000000
v -0.274022 0.000000 -1.000000
v 0.813100 0.000000 -1.000000
v 0.796375 0.000000 -1.000000
v 0.796375 0.041344 -1.000000
v 0.813100 0.015330 -1.000000
v 0.738195 0.041344 -0.829793
v 0.738195 0.041344 -1.000000
v -0.395275 0.032483 -1.000000
v -0.434430 0.032483 -1.000000
v -0.395275 -0.002719 -1.000000
v -0.459499 -0.002719 -1.000000
v -0.001792 0.041344 -0.829793
v 0.738195 0.000000 -1.000000
v -0.274022 0.013947 -0.444794
v -0.255916 0.041285 -0.439330
v 0.734891 0.015330 0.778811
v 0.795277 0.041344 0.761350
v 0.809953 0.015330 0.778811
v 0.734891 0.000000 1.000000
v 0.734891 0.015330 1.000000
v 1.000000 0.000000 0.274022
v 1.000000 0.013947 0.274022
v 0.049601 0.015330 1.000000
v 0.046948 0.000000 1.000000
v -1.000000 0.000000 -0.597931
v -1.000000 0.013947 -0.597931
v -0.789925 0.013947 -0.597931
v -0.748192 0.013947 -0.721938
v -0.597931 0.013947 -0.721955
v -1.000000 0.000000 -0.613790
v -1.000000 0.000000 -0.833562
v -0.613790 0.000000 -1.000000
v -0.597931 0.013947 -0.834823
v -0.597931 0.013947 -1.000000
v -0.597931 0.000000 -1.000000
vn 0.0000 0.0000 -1.0000
vn 0.8988 0.4383 0.0000
vn 0.0000 1.0000 0.0000
vn -1.0000 0.0000 0.0000
vn 0.0003 0.4377 0.8991
vn 0.0013 0.4343 0.9008
vn 0.0000 0.4385 0.8987
vn 0.0015 0.4337 0.9011
vn 0.0000 0.0000 1.0000
vn 1.0000 0.0000 0.0000
vn 0.0000 0.5573 0.8303
vn 0.0000 0.5421 -0.8403
vn -0.8592 0.4122 -0.3031
vn -0.8252 0.4980 -0.2665
vn -0.8191 0.5112 -0.2604
vn 0.5247 0.4645 0.7134
vn 0.5260 0.4700 0.7088
vn 0.5269 0.4737 0.7057
vn 0.0000 0.5408 0.8412
vn -0.8742 0.2817 -0.3955
vn 0.0000 0.5801 -0.8146
vn -0.0001 0.5783 -0.8158
vn 0.0001 0.5799 -0.8147
vn -0.0002 0.5782 -0.8159
vn 0.9029 0.0000 0.4299
vn 0.8711 0.4911 0.0000
vn 0.8814 0.4724 0.0003
vn 0.8813 0.4726 0.0003
vn -0.0001 1.0000 0.0000
vn -0.8387 0.5446 0.0002
vn -0.8403 0.5421 0.0000
vn 0.8647 0.5021 0.0138
vn 0.8441 0.5361 0.0064
vn 0.8411 0.5408 0.0054
vn 1.0000 0.0000 -0.0001
vn -0.8146 0.5801 0.0000
vn -0.8341 0.5516 0.0010
vn -0.8417 0.5399 -0.0002
vn -0.3531 0.4272 -0.8324
vn -0.3049 0.5259 -0.7940
vn -0.3619 0.4073 -0.8385
vn 0.0002 1.0000 -0.0001
vn 0.8717 0.4901 -0.0013
vn 0.8713 0.4907 -0.0013
vn -0.8639 0.3979 -0.3088
vn 0.5237 0.4607 0.7166
vn 0.0001 0.5801 -0.8146
vn 0.8710 0.4914 0.0000
vn 0.8668 0.4984 0.0146
vn -0.8338 0.5520 0.0010
vn -0.2924 0.5492 -0.7829
vn 0.0004 1.0000 -0.0001
vn 0.0003 0.8259 -0.5638
vn -0.0000 0.8244 -0.5659
vn 0.0004 0.8261 -0.5636
vn -0.8586 0.4235 -0.2889
vn 0.0000 0.8261 -0.5636
vn 0.0000 1.0000 0.0006
vn 0.0000 1.0000 -0.0007
vn 0.0003 1.0000 -0.0006
vn -0.5636 0.8261 0.0000
vn -0.0001 0.8243 -0.5661
vn 0.0010 1.0000 -0.0009
usemtl Accent.012
s 1
f 2//1 4//1 1//1
f 5//2 7//2 4//2
f 5//3 3//3 8//3
f 1//1 7//1 9//1
f 2//4 8//4 3//4
f 10//5 5//6 8//7
f 2//1 3//1 4//1
f 5//2 6//2 7//2
f 5//3 4//3 3//3
f 1//1 4//1 7//1
f 2//4 10//4 8//4
f 10//5 6//8 5//6
usemtl DarkAccent.004
f 12//3 14//3 11//3
f 15//9 12//9 11//9
f 17//4 11//4 14//4
f 16//10 13//10 12//10
f 18//1 14//1 13//1
f 12//3 13//3 14//3
f 15//9 16//9 12//9
f 17//4 15//4 11//4
f 16//10 18//10 13//10
f 18//1 17//1 14//1
usemtl Black.005
f 19//3 21//3 6//3
f 22//3 6//3 10//3
f 6//3 23//3 19//3
f 21//3 7//3 6//3
f 19//3 20//3 21//3
f 22//3 23//3 6//3
f 21//3 24//3 7//3
usemtl Main.014
f 25//11 27//11 28//11
f 30//9 32//9 29//9
f 34//4 36//4 33//4
f 37//9 39//9 40//9
f 35//12 42//12 36//12
f 43//9 39//9 38//9
f 42//13 45//14 46//15
f 47//3 49//3 50//3
f 51//3 48//3 47//3
f 54//4 51//4 53//4
f 48//16 56//17 49//18
f 57//19 48//19 52//19
f 54//4 57//4 52//4
f 60//3 62//3 59//3
f 62//3 63//3 64//3
f 64//20 66//20 62//20
f 66//21 59//21 62//21
f 69//22 64//23 68//24
f 70//25 63//25 61//25
f 72//9 61//9 60//9
f 59//4 72//4 60//4
f 56//11 27//11 49//11
f 50//3 27//3 73//3
f 74//9 44//9 43//9
f 45//12 77//12 46//12
f 71//9 79//9 63//9
f 63//3 68//3 64//3
f 26//3 81//3 82//3
f 83//26 85//27 86//28
f 81//3 88//29 82//3
f 90//10 92//10 89//10
f 94//1 96//1 93//1
f 97//30 95//31 99//31
f 94//1 99//1 95//1
f 102//1 104//1 101//1
f 84//3 106//3 105//3
f 84//32 104//33 103//34
f 68//3 107//3 108//3
f 78//35 107//35 79//35
f 108//36 69//36 68//36
f 105//3 96//3 111//3
f 112//1 103//1 102//1
f 111//3 95//3 98//3
f 93//1 106//1 112//1
f 113//37 98//38 97//30
f 113//39 76//40 114//41
f 85//3 87//3 81//3
f 98//3 88//29 111//3
f 87//3 84//3 105//3
f 76//42 73//3 82//3
f 87//3 111//3 88//29
f 27//3 82//3 73//3
f 115//11 26//11 25//11
f 86//28 116//43 117//44
f 115//11 116//11 80//11
f 116//3 81//3 80//3
f 29//9 119//9 118//9
f 45//3 73//3 76//42
f 53//4 35//4 34//4
f 51//3 41//3 35//3
f 41//3 50//3 45//3
f 108//1 109//1 110//1
f 25//11 26//11 27//11
f 30//9 31//9 32//9
f 34//4 35//4 36//4
f 37//9 38//9 39//9
f 35//12 41//12 42//12
f 43//9 44//9 39//9
f 42//13 41//45 45//14
f 47//3 48//3 49//3
f 51//3 52//3 48//3
f 54//4 52//4 51//4
f 48//16 55//46 56//17
f 57//19 55//19 48//19
f 54//4 58//4 57//4
f 60//3 61//3 62//3
f 62//3 61//3 63//3
f 64//20 65//20 66//20
f 66//21 67//21 59//21
f 69//22 65//47 64//23
f 70//25 71//25 63//25
f 72//9 70//9 61//9
f 59//4 67//4 72//4
f 56//11 28//11 27//11
f 50//3 49//3 27//3
f 74//9 75//9 44//9
f 45//12 76//12 77//12
f 71//9 78//9 79//9
f 63//3 79//3 68//3
f 26//3 80//3 81//3
f 83//26 84//48 85//27
f 81//3 87//3 88//29
f 90//10 91//10 92//10
f 94//1 95//1 96//1
f 97//30 98//38 95//31
f 94//1 100//1 99//1
f 102//1 103//1 104//1
f 84//3 103//3 106//3
f 84//32 83//49 104//33
f 68//3 79//3 107//3
f 78//35 109//35 107//35
f 108//36 110//36 69//36
f 105//3 106//3 96//3
f 112//1 106//1 103//1
f 111//3 96//3 95//3
f 93//1 96//1 106//1
f 113//37 114//50 98//38
f 113//39 77//51 76//40
f 85//3 84//3 87//3
f 98//3 114//3 88//29
f 82//3 88//29 114//3
f 114//3 76//42 82//3
f 87//3 105//3 111//3
f 27//3 26//3 82//3
f 115//11 80//11 26//11
f 86//28 85//27 116//43
f 115//11 117//11 116//11
f 116//3 85//3 81//3
f 29//9 32//9 119//9
f 45//3 50//3 73//3
f 53//4 51//4 35//4
f 51//3 47//3 41//3
f 41//3 47//3 50//3
f 108//1 107//1 109//1
usemtl DarkGrey.014
f 30//10 121//10 31//10
f 115//3 32//3 117//52
f 122//9 118//9 119//9
f 28//3 122//3 25//3
f 37//4 57//4 58//4
f 33//4 125//4 124//4
f 40//3 55//3 57//3
f 36//3 126//3 125//3
f 55//3 44//3 56//3
f 126//3 46//3 127//3
f 127//53 20//54 19//55
f 23//56 127//56 19//56
f 125//57 23//57 22//57
f 124//4 22//4 129//4
f 129//4 10//4 130//4
f 44//3 28//3 56//3
f 46//3 128//3 127//3
f 9//1 24//1 131//1
f 92//58 104//3 83//58
f 101//1 91//1 90//1
f 121//10 89//10 92//10
f 86//59 92//58 83//58
f 25//3 119//3 115//3
f 75//9 123//9 122//9
f 121//60 86//59 117//52
f 132//3 99//3 133//3
f 134//1 99//1 100//1
f 132//61 24//61 21//61
f 134//1 24//1 133//1
f 20//61 132//61 21//61
f 128//3 97//3 132//3
f 128//3 113//3 97//3
f 30//10 120//10 121//10
f 115//3 119//3 32//3
f 122//9 123//9 118//9
f 28//3 75//3 122//3
f 37//4 40//4 57//4
f 33//4 36//4 125//4
f 40//3 39//3 55//3
f 36//3 42//3 126//3
f 55//3 39//3 44//3
f 126//3 42//3 46//3
f 127//53 128//62 20//54
f 23//56 126//56 127//56
f 125//57 126//57 23//57
f 124//4 125//4 22//4
f 129//4 22//4 10//4
f 44//3 75//3 28//3
f 46//3 77//3 128//3
f 9//1 7//1 24//1
f 92//58 91//3 104//3
f 101//1 104//1 91//1
f 121//10 120//10 89//10
f 86//59 121//60 92//58
f 25//3 122//3 119//3
f 75//9 74//9 123//9
f 32//3 31//63 117//52
f 31//63 121//60 117//52
f 132//3 97//3 99//3
f 134//1 133//1 99//1
f 132//61 133//61 24//61
f 134//1 131//1 24//1
f 20//61 128//61 132//61
f 128//3 77//3 113//3
o Collectible_Board_Cube.006
v 37.298409 -28.104891 1.924602
v 37.386723 -28.012707 1.949303
v 37.493511 -28.108162 1.923726
v 37.405197 -28.200344 1.899026
v 37.493511 -28.131809 2.011975
v 37.405197 -28.223989 1.987275
v 37.176292 -28.232359 1.890447
v 37.283085 -28.327810 1.864871
v 37.283085 -28.351458 1.953120
v 37.176292 -28.256004 1.978696
v 37.078152 -28.153656 1.996977
v 37.040550 -28.120045 2.005983
v 36.965508 -28.198378 1.984994
v 37.003109 -28.231985 1.975989
v 37.372601 -28.234371 1.889908
v 37.372601 -28.258018 1.978157
v 37.265808 -28.138916 1.915485
v 37.298409 -28.128536 2.012851
v 37.265808 -28.162563 2.003734
v 37.386723 -28.036352 2.037552
v 36.458618 -27.972254 2.067989
v 36.913841 -27.497091 2.195308
v 36.913841 -27.466814 2.082312
v 36.458618 -27.941977 1.954993
v 36.516872 -28.024324 2.054037
v 36.516872 -27.994047 1.941041
v 36.972092 -27.518885 2.068360
v 36.972092 -27.549162 2.181356
v 36.656250 -27.879559 1.994123
v 36.693291 -27.912668 1.985251
v 36.618252 -27.990999 1.964263
v 36.581207 -27.957891 1.973134
v 36.730331 -27.945776 1.976380
v 36.767372 -27.978886 1.967509
v 36.692329 -28.057217 1.946520
v 36.655289 -28.024109 1.955391
v 36.804413 -28.011993 1.958637
v 36.841454 -28.045103 1.949766
v 36.766407 -28.123432 1.928777
v 36.729370 -28.090326 1.937648
v 36.841454 -28.064178 2.020952
v 36.804413 -28.031067 2.029824
v 36.729370 -28.109400 2.008835
v 36.766407 -28.142508 1.999964
v 36.767372 -27.997961 2.038695
v 36.730331 -27.964851 2.047567
v 36.655289 -28.043182 2.026578
v 36.692329 -28.076290 2.017707
v 36.693291 -27.931744 2.056438
v 36.656250 -27.898634 2.065310
v 36.581207 -27.976967 2.044321
v 36.618248 -28.010073 2.035450
v 36.932510 -28.085796 1.938862
v 36.986534 -28.093384 1.936829
v 36.911488 -28.171717 1.915840
v 36.857471 -28.164129 1.917873
v 36.986534 -28.112457 2.008016
v 36.932510 -28.104872 2.010049
v 36.857471 -28.183205 1.989060
v 36.911488 -28.190790 1.987027
v 37.040550 -28.100969 1.934796
v 37.078152 -28.134581 1.925790
v 37.003109 -28.212912 1.904802
v 36.965508 -28.179302 1.913807
v 37.115753 -28.168190 1.916785
v 37.153355 -28.201797 1.907780
v 37.078312 -28.280130 1.886790
v 37.040710 -28.246519 1.895797
v 37.190956 -28.235409 1.898773
v 37.228554 -28.269018 1.889768
v 37.153515 -28.347351 1.868779
v 37.115910 -28.313740 1.877785
v 37.228554 -28.288092 1.960955
v 37.190956 -28.254484 1.969960
v 37.115910 -28.332813 1.948972
v 37.153515 -28.366425 1.939966
v 37.153355 -28.220873 1.978966
v 37.115753 -28.187263 1.987972
v 37.040710 -28.265594 1.966983
v 37.078312 -28.299206 1.957977
v 36.780376 -27.664858 2.143467
v 36.874695 -27.566404 2.169847
v 36.874695 -27.539572 2.069706
v 36.780376 -27.638025 2.043325
v 37.084263 -27.936485 2.070684
v 37.178581 -27.838034 2.097064
v 37.178581 -27.811201 1.996923
v 36.582893 -27.844158 1.988092
v 36.858822 -28.090796 1.922006
v 36.858822 -28.117630 2.022147
v 36.582893 -27.870991 2.088233
v 37.084263 -27.909653 1.970543
v 36.889336 -28.095081 1.920857
v 37.031288 -28.115017 1.915516
v 37.031288 -28.141850 2.015657
v 36.889336 -28.121916 2.020998
v 37.102909 -27.926321 1.966076
v 37.197227 -27.827869 1.992457
v 37.283985 -27.905420 1.971677
v 37.189667 -28.003872 1.945297
v 37.040138 -27.937675 1.963034
v 37.126892 -28.015223 1.942256
v 36.745560 -27.674366 2.033588
v 37.021488 -27.921003 1.967501
v 37.021488 -27.947836 2.067643
v 36.745560 -27.701199 2.133729
v 37.126892 -28.042055 2.042397
v 37.189667 -28.030704 2.045438
v 37.102909 -27.953154 2.066218
v 37.040138 -27.964508 2.063176
v 37.283985 -27.932253 2.071819
v 37.197227 -27.854702 2.092598
v 37.262127 -28.162933 2.010008
v 37.296944 -28.126593 2.019745
v 37.205051 -28.044455 2.041754
v 37.144306 -28.057615 2.038227
v 37.166519 -28.262726 1.983268
v 37.048698 -28.157413 2.011487
v 37.391262 -28.001307 1.945984
v 37.299370 -27.919170 1.967993
v 37.299370 -27.946003 2.068134
v 37.391262 -28.028139 2.046125
v 37.144306 -28.030783 1.938086
v 37.205051 -28.017622 1.941613
v 37.296944 -28.099760 1.919604
v 37.262127 -28.136101 1.909866
v 37.048698 -28.130581 1.911346
v 37.166519 -28.235893 1.883127
v 36.450783 -27.993490 2.074390
v 36.450783 -27.957167 1.938832
v 36.932030 -27.454834 2.073431
v 36.932030 -27.491158 2.208989
v 36.431599 -27.976343 2.078984
v 36.912846 -27.474014 2.213583
v 36.912846 -27.437691 2.078025
v 36.431599 -27.940022 1.943426
v 37.266155 -28.321703 1.951949
v 37.266155 -28.302629 1.880762
v 36.878494 -28.097284 2.012081
v 36.878494 -28.078211 1.940895
v 37.191113 -28.380959 1.859774
v 37.191113 -28.400034 1.930960
v 36.803448 -28.156544 1.919906
v 36.803448 -28.175617 1.991092
v 36.619213 -27.865526 2.074181
v 36.619213 -27.846453 2.002994
v 36.544167 -27.924782 1.982006
v 36.544167 -27.943855 2.053193
vn 0.0000 0.2588 -0.9659
vn 0.7339 -0.6561 -0.1758
vn 0.7340 -0.6560 -0.1758
vn -0.6792 -0.7090 -0.1900
vn -0.6791 -0.7090 -0.1900
vn 0.0000 -0.2588 0.9659
vn 0.6792 0.7089 0.1900
vn -0.7340 0.6560 0.1758
vn -0.7340 0.6561 0.1758
vn -0.7339 0.6561 0.1758
vn 0.7340 -0.6561 -0.1758
vn -0.6792 -0.7089 -0.1900
vn -0.6792 -0.7090 -0.1899
vn -0.6792 -0.7089 -0.1899
vn 0.6792 0.7090 0.1899
vn 0.6792 0.7090 0.1900
vn -0.1439 -0.9559 -0.2561
vn -0.1439 -0.9559 -0.2562
vn 0.1439 0.9559 0.2561
vn 0.6792 0.7089 0.1899
vn 0.6791 0.7090 0.1900
vn 0.0000 0.2589 -0.9659
vn -0.0000 -0.2589 0.9659
vn 0.6352 -0.6975 0.3316
vn 0.6353 -0.6975 0.3315
vn 0.9129 -0.3942 -0.1056
vn 0.9129 -0.3943 -0.1056
vn 0.6351 -0.6972 0.3324
vn 0.6354 -0.4381 -0.6359
vn 0.6352 -0.4383 -0.6359
vn 0.6354 -0.4380 -0.6359
vn 0.6349 -0.4380 -0.6365
vn 0.4772 -0.8489 -0.2274
vn 0.4773 -0.8488 -0.2274
vn 0.6352 -0.4382 -0.6360
vn 0.6353 -0.4380 -0.6361
vn -0.0000 -0.2587 0.9659
vn 0.6790 0.7092 0.1900
vn -0.6791 -0.7091 -0.1899
vn -0.6790 -0.7091 -0.1899
vn 0.1439 0.9559 0.2562
vn -0.7339 0.6561 0.1757
vn -0.6793 -0.7089 -0.1900
vn 0.6791 0.7090 0.1899
vn 0.1439 0.9558 0.2562
usemtl DarkGrey.065
s 1
f 135//64 137//64 138//64
f 137//65 140//66 138//66
f 142//67 144//67 141//68
f 145//69 147//69 148//69
f 149//66 143//66 142//66
f 141//64 149//64 142//64
f 138//66 150//66 149//66
f 135//64 149//64 151//64
f 150//69 152//69 153//69
f 150//69 144//69 143//69
f 136//70 139//70 137//70
f 139//69 152//69 140//69
f 156//71 158//72 155//73
f 160//66 162//74 159//66
f 156//70 161//70 157//70
f 158//75 159//67 155//67
f 158//64 161//64 160//64
f 155//69 162//69 156//69
f 164//64 166//64 163//64
f 168//64 170//64 167//64
f 172//64 174//64 171//64
f 175//69 177//69 178//69
f 179//69 181//69 182//69
f 183//69 185//69 186//69
f 166//75 186//76 185//77
f 169//76 181//76 170//75
f 173//77 177//76 174//75
f 184//70 164//78 163//78
f 180//70 168//70 167//70
f 176//78 172//78 171//79
f 187//64 189//64 190//64
f 192//69 194//69 191//69
f 189//80 193//81 190//80
f 192//82 188//82 187//82
f 196//64 198//64 195//64
f 199//64 201//64 202//64
f 204//64 206//64 203//64
f 207//69 209//69 210//69
f 212//69 214//69 211//69
f 197//76 147//76 198//75
f 201//75 213//75 202//67
f 205//77 209//76 206//77
f 146//70 196//79 195//83
f 212//79 200//79 199//84
f 208//70 204//70 203//79
f 135//64 136//64 137//64
f 137//65 139//65 140//66
f 142//67 143//77 144//67
f 145//69 146//69 147//69
f 149//66 150//66 143//66
f 141//64 151//64 149//64
f 138//66 140//66 150//66
f 135//64 138//64 149//64
f 150//69 140//69 152//69
f 150//69 153//69 144//69
f 136//70 154//83 139//70
f 139//69 154//69 152//69
f 156//71 157//71 158//72
f 160//66 161//74 162//74
f 156//70 162//70 161//70
f 158//75 160//75 159//67
f 158//64 157//64 161//64
f 155//69 159//69 162//69
f 164//64 165//64 166//64
f 168//64 169//64 170//64
f 172//64 173//64 174//64
f 175//69 176//69 177//69
f 179//69 180//69 181//69
f 183//69 184//69 185//69
f 166//75 165//75 186//76
f 169//76 182//76 181//76
f 173//77 178//67 177//76
f 184//70 183//79 164//78
f 180//70 179//70 168//70
f 176//78 175//70 172//78
f 187//64 188//64 189//64
f 192//69 193//69 194//69
f 189//80 194//80 193//81
f 192//82 191//82 188//82
f 196//64 197//64 198//64
f 199//64 200//64 201//64
f 204//64 205//64 206//64
f 207//69 208//69 209//69
f 212//69 213//69 214//69
f 197//76 148//67 147//76
f 201//75 214//75 213//75
f 205//77 210//76 209//76
f 146//70 145//79 196//79
f 212//79 211//70 200//79
f 208//70 207//70 204//70
usemtl Green.005
f 216//71 218//72 215//73
f 220//69 215//69 219//69
f 217//70 220//70 221//70
f 223//75 225//75 222//75
f 217//64 226//64 218//64
f 228//80 230//81 227//80
f 231//64 233//64 234//64
f 235//64 228//64 227//85
f 237//64 223//64 222//64
f 224//69 240//69 225//69
f 240//72 222//71 225//71
f 231//64 236//64 235//64
f 218//64 238//64 237//64
f 239//69 215//69 240//69
f 215//73 237//73 240//72
f 241//69 243//69 244//69
f 229//69 244//69 230//86
f 245//69 243//69 242//69
f 232//70 245//79 233//79
f 247//69 249//69 250//69
f 251//69 250//69 252//69
f 254//79 256//79 253//79
f 248//69 255//69 249//69
f 154//87 248//88 152//88
f 253//89 154//90 136//89
f 144//91 247//87 251//91
f 152//88 247//87 153//87
f 258//64 260//64 257//64
f 257//64 262//64 261//64
f 262//67 252//75 261//75
f 254//64 259//64 258//64
f 260//92 135//93 151//94
f 260//92 141//95 262//95
f 141//96 251//97 262//96
f 259//98 136//99 135//93
f 216//71 217//71 218//72
f 220//69 216//69 215//69
f 217//70 216//70 220//70
f 223//75 224//67 225//75
f 217//64 221//64 226//64
f 228//80 229//80 230//81
f 231//64 232//85 233//64
f 235//64 236//64 228//64
f 237//64 238//64 223//64
f 224//69 239//69 240//69
f 240//72 237//73 222//71
f 231//64 234//64 236//64
f 218//64 226//64 238//64
f 239//69 219//69 215//69
f 215//73 218//72 237//73
f 241//69 242//69 243//69
f 229//69 241//69 244//69
f 245//69 246//69 243//69
f 232//70 246//70 245//79
f 247//69 248//69 249//69
f 251//69 247//69 250//69
f 254//79 255//79 256//79
f 248//69 256//69 255//69
f 154//87 256//87 248//88
f 253//89 256//90 154//90
f 144//91 153//87 247//87
f 152//88 248//88 247//87
f 258//64 259//64 260//64
f 257//64 260//64 262//64
f 262//67 251//67 252//75
f 254//64 253//64 259//64
f 260//92 259//98 135//93
f 260//92 151//94 141//95
f 141//96 144//97 251//97
f 259//98 253//99 136//99
usemtl Grey.021
f 264//74 266//74 263//74
f 268//71 270//72 267//72
f 263//69 268//100 267//69
f 265//101 268//84 266//79
f 263//102 270//75 264//75
f 264//64 269//64 265//64
f 264//74 265//66 266//74
f 268//71 269//71 270//72
f 263//69 266//100 268//100
f 265//101 269//101 268//84
f 263//102 267//103 270//75
f 264//64 270//64 269//64
usemtl Gold.005
f 221//70 246//70 232//70
f 243//69 220//69 219//69
f 249//69 245//69 242//69
f 233//79 255//79 254//79
f 207//70 272//83 204//70
f 175//70 274//79 172//78
f 191//82 195//104 188//82
f 275//77 210//76 205//77
f 277//75 178//67 173//77
f 198//80 194//80 189//80
f 280//73 282//73 279//105
f 273//69 193//69 192//69
f 184//69 282//69 185//69
f 172//64 277//64 173//64
f 272//64 205//64 204//64
f 188//64 198//64 189//64
f 271//74 275//66 272//74
f 252//69 241//69 229//69
f 230//86 239//69 224//69
f 250//69 242//69 241//69
f 244//69 219//69 239//69
f 226//64 235//64 238//64
f 238//64 227//85 223//64
f 221//64 231//64 226//64
f 227//80 224//81 223//81
f 234//64 257//64 236//64
f 236//64 261//64 228//64
f 261//75 229//75 228//106
f 233//64 258//64 234//64
f 163//64 281//64 280//64
f 167//64 165//64 164//64
f 171//64 169//64 168//64
f 175//69 278//69 273//69
f 176//69 182//69 177//69
f 183//69 181//69 180//69
f 166//75 282//75 281//67
f 165//75 181//76 186//76
f 174//75 182//76 169//76
f 279//70 163//78 280//107
f 183//79 167//70 164//78
f 179//70 171//79 168//70
f 274//64 190//64 277//64
f 191//69 147//69 146//69
f 190//80 278//80 277//80
f 273//82 187//82 274//82
f 196//64 202//64 197//64
f 203//64 201//64 200//64
f 271//69 210//69 276//69
f 208//69 214//69 209//69
f 145//69 213//69 212//69
f 202//67 148//67 197//76
f 206//77 214//75 201//75
f 145//79 199//84 196//79
f 211//70 203//79 200//79
f 221//70 220//70 246//70
f 243//69 246//69 220//69
f 249//69 255//69 245//69
f 233//79 245//79 255//79
f 207//70 271//78 272//83
f 175//70 273//70 274//79
f 191//82 146//108 195//104
f 275//77 276//75 210//76
f 277//75 278//75 178//67
f 198//80 147//80 194//80
f 280//73 281//72 282//73
f 273//69 278//69 193//69
f 184//69 279//69 282//69
f 172//64 274//64 277//64
f 272//64 275//64 205//64
f 188//64 195//64 198//64
f 271//74 276//66 275//66
f 252//69 250//69 241//69
f 230//86 244//69 239//69
f 250//69 249//69 242//69
f 244//69 243//69 219//69
f 226//64 231//64 235//64
f 238//64 235//64 227//85
f 221//64 232//85 231//64
f 227//80 230//81 224//81
f 234//64 258//64 257//64
f 236//64 257//64 261//64
f 261//75 252//75 229//75
f 233//64 254//64 258//64
f 163//64 166//64 281//64
f 167//64 170//64 165//64
f 171//64 174//64 169//64
f 175//69 178//69 278//69
f 176//69 179//69 182//69
f 183//69 186//69 181//69
f 166//75 185//77 282//75
f 165//75 170//75 181//76
f 174//75 177//76 182//76
f 279//70 184//70 163//78
f 183//79 180//70 167//70
f 179//70 176//78 171//79
f 274//64 187//64 190//64
f 191//69 194//69 147//69
f 190//80 193//81 278//80
f 273//82 192//82 187//82
f 196//64 199//64 202//64
f 203//64 206//64 201//64
f 271//69 207//69 210//69
f 208//69 211//69 214//69
f 145//69 148//69 213//69
f 202//67 213//75 148//67
f 206//77 209//76 214//75
f 145//79 212//79 199//84
f 211//70 208//70 203//79
