# Blender v3.0.1 OBJ File: 'RTeamGameLevel.blend'
# www.blender.org
mtllib RoomBound.mtl
o RoomBound_Cube
v -1.000000 -1.000000 -1.000000
v -1.000000 -1.000000 1.000000
v -1.000000 1.000000 -1.000000
v -1.000000 1.000000 1.000000
v 1.000000 -1.000000 -1.000000
v 1.000000 -1.000000 1.000000
v 1.000000 1.000000 -1.000000
v 1.000000 1.000000 1.000000
vt 0.625000 0.000000
vt 0.375000 0.250000
vt 0.375000 0.000000
vt 0.625000 0.250000
vt 0.375000 0.500000
vt 0.625000 0.500000
vt 0.375000 0.750000
vt 0.625000 0.750000
vt 0.375000 1.000000
vt 0.125000 0.750000
vt 0.125000 0.500000
vt 0.875000 0.500000
vt 0.625000 1.000000
vt 0.875000 0.750000
vn -1.0000 0.0000 0.0000
vn 0.0000 1.0000 0.0000
vn 1.0000 0.0000 0.0000
vn 0.0000 -1.0000 0.0000
vn 0.0000 0.0000 -1.0000
vn 0.0000 0.0000 1.0000
usemtl None
s off
f 2/1/1 3/2/1 1/3/1
f 4/4/2 7/5/2 3/2/2
f 8/6/3 5/7/3 7/5/3
f 6/8/4 1/9/4 5/7/4
f 7/5/5 1/10/5 3/11/5
f 4/12/6 6/8/6 8/6/6
f 2/1/1 4/4/1 3/2/1
f 4/4/2 8/6/2 7/5/2
f 8/6/3 6/8/3 5/7/3
f 6/8/4 2/13/4 1/9/4
f 7/5/5 5/7/5 1/10/5
f 4/12/6 2/14/6 6/8/6
o Collectible_Board_Cube.006
v 37.298409 -28.104891 1.924602
v 37.386723 -28.012707 1.949303
v 37.493511 -28.108162 1.923726
v 37.405197 -28.200344 1.899026
v 37.493511 -28.131809 2.011975
v 37.405197 -28.223989 1.987275
v 37.176292 -28.232359 1.890447
v 37.283085 -28.327810 1.864871
v 37.283085 -28.351458 1.953120
v 37.176292 -28.256004 1.978696
v 37.078152 -28.153656 1.996977
v 37.040550 -28.120045 2.005983
v 36.965508 -28.198378 1.984994
v 37.003109 -28.231985 1.975989
v 37.372601 -28.234371 1.889908
v 37.372601 -28.258018 1.978157
v 37.265808 -28.138916 1.915485
v 37.298409 -28.128536 2.012851
v 37.265808 -28.162563 2.003734
v 37.386723 -28.036352 2.037552
v 36.458618 -27.972254 2.067989
v 36.913841 -27.497091 2.195308
v 36.913841 -27.466814 2.082312
v 36.458618 -27.941977 1.954993
v 36.516872 -28.024324 2.054037
v 36.516872 -27.994047 1.941041
v 36.972092 -27.518885 2.068360
v 36.972092 -27.549162 2.181356
v 36.656250 -27.879559 1.994123
v 36.693291 -27.912668 1.985251
v 36.618252 -27.990999 1.964263
v 36.581207 -27.957891 1.973134
v 36.730331 -27.945776 1.976380
v 36.767372 -27.978886 1.967509
v 36.692329 -28.057217 1.946520
v 36.655289 -28.024109 1.955391
v 36.804413 -28.011993 1.958637
v 36.841454 -28.045103 1.949766
v 36.766407 -28.123432 1.928777
v 36.729370 -28.090326 1.937648
v 36.841454 -28.064178 2.020952
v 36.804413 -28.031067 2.029824
v 36.729370 -28.109400 2.008835
v 36.766407 -28.142508 1.999964
v 36.767372 -27.997961 2.038695
v 36.730331 -27.964851 2.047567
v 36.655289 -28.043182 2.026578
v 36.692329 -28.076290 2.017707
v 36.693291 -27.931744 2.056438
v 36.656250 -27.898634 2.065310
v 36.581207 -27.976967 2.044321
v 36.618248 -28.010073 2.035450
v 36.932510 -28.085796 1.938862
v 36.986534 -28.093384 1.936829
v 36.911488 -28.171717 1.915840
v 36.857471 -28.164129 1.917873
v 36.986534 -28.112457 2.008016
v 36.932510 -28.104872 2.010049
v 36.857471 -28.183205 1.989060
v 36.911488 -28.190790 1.987027
v 37.040550 -28.100969 1.934796
v 37.078152 -28.134581 1.925790
v 37.003109 -28.212912 1.904802
v 36.965508 -28.179302 1.913807
v 37.115753 -28.168190 1.916785
v 37.153355 -28.201797 1.907780
v 37.078312 -28.280130 1.886790
v 37.040710 -28.246519 1.895797
v 37.190956 -28.235409 1.898773
v 37.228554 -28.269018 1.889768
v 37.153515 -28.347351 1.868779
v 37.115910 -28.313740 1.877785
v 37.228554 -28.288092 1.960955
v 37.190956 -28.254484 1.969960
v 37.115910 -28.332813 1.948972
v 37.153515 -28.366425 1.939966
v 37.153355 -28.220873 1.978966
v 37.115753 -28.187263 1.987972
v 37.040710 -28.265594 1.966983
v 37.078312 -28.299206 1.957977
v 36.780376 -27.664858 2.143467
v 36.874695 -27.566404 2.169847
v 36.874695 -27.539572 2.069706
v 36.780376 -27.638025 2.043325
v 37.084263 -27.936485 2.070684
v 37.178581 -27.838034 2.097064
v 37.178581 -27.811201 1.996923
v 36.582893 -27.844158 1.988092
v 36.858822 -28.090796 1.922006
v 36.858822 -28.117630 2.022147
v 36.582893 -27.870991 2.088233
v 37.084263 -27.909653 1.970543
v 36.889336 -28.095081 1.920857
v 37.031288 -28.115017 1.915516
v 37.031288 -28.141850 2.015657
v 36.889336 -28.121916 2.020998
v 37.102909 -27.926321 1.966076
v 37.197227 -27.827869 1.992457
v 37.283985 -27.905420 1.971677
v 37.189667 -28.003872 1.945297
v 37.040138 -27.937675 1.963034
v 37.126892 -28.015223 1.942256
v 36.745560 -27.674366 2.033588
v 37.021488 -27.921003 1.967501
v 37.021488 -27.947836 2.067643
v 36.745560 -27.701199 2.133729
v 37.126892 -28.042055 2.042397
v 37.189667 -28.030704 2.045438
v 37.102909 -27.953154 2.066218
v 37.040138 -27.964508 2.063176
v 37.283985 -27.932253 2.071819
v 37.197227 -27.854702 2.092598
v 37.262127 -28.162933 2.010008
v 37.296944 -28.126593 2.019745
v 37.205051 -28.044455 2.041754
v 37.144306 -28.057615 2.038227
v 37.166519 -28.262726 1.983268
v 37.048698 -28.157413 2.011487
v 37.391262 -28.001307 1.945984
v 37.299370 -27.919170 1.967993
v 37.299370 -27.946003 2.068134
v 37.391262 -28.028139 2.046125
v 37.144306 -28.030783 1.938086
v 37.205051 -28.017622 1.941613
v 37.296944 -28.099760 1.919604
v 37.262127 -28.136101 1.909866
v 37.048698 -28.130581 1.911346
v 37.166519 -28.235893 1.883127
v 36.450783 -27.993490 2.074390
v 36.450783 -27.957167 1.938832
v 36.932030 -27.454834 2.073431
v 36.932030 -27.491158 2.208989
v 36.431599 -27.976343 2.078984
v 36.912846 -27.474014 2.213583
v 36.912846 -27.437691 2.078025
v 36.431599 -27.940022 1.943426
v 37.266155 -28.321703 1.951949
v 37.266155 -28.302629 1.880762
v 36.878494 -28.097284 2.012081
v 36.878494 -28.078211 1.940895
v 37.191113 -28.380959 1.859774
v 37.191113 -28.400034 1.930960
v 36.803448 -28.156544 1.919906
v 36.803448 -28.175617 1.991092
v 36.619213 -27.865526 2.074181
v 36.619213 -27.846453 2.002994
v 36.544167 -27.924782 1.982006
v 36.544167 -27.943855 2.053193
vn 0.0000 0.2588 -0.9659
vn 0.7339 -0.6561 -0.1758
vn 0.7340 -0.6560 -0.1758
vn -0.6792 -0.7090 -0.1900
vn -0.6791 -0.7090 -0.1900
vn 0.0000 -0.2588 0.9659
vn 0.6792 0.7089 0.1900
vn -0.7340 0.6560 0.1758
vn -0.7340 0.6561 0.1758
vn -0.7339 0.6561 0.1758
vn 0.7340 -0.6561 -0.1758
vn -0.6792 -0.7089 -0.1900
vn -0.6792 -0.7090 -0.1899
vn -0.6792 -0.7089 -0.1899
vn 0.6792 0.7090 0.1899
vn 0.6792 0.7090 0.1900
vn -0.1439 -0.9559 -0.2561
vn -0.1439 -0.9559 -0.2562
vn 0.1439 0.9559 0.2561
vn 0.6792 0.7089 0.1899
vn 0.6791 0.7090 0.1900
vn 0.0000 0.2589 -0.9659
vn -0.0000 -0.2589 0.9659
vn 0.6352 -0.6975 0.3316
vn 0.6353 -0.6975 0.3315
vn 0.9129 -0.3942 -0.1056
vn 0.9129 -0.3943 -0.1056
vn 0.6351 -0.6972 0.3324
vn 0.6354 -0.4381 -0.6359
vn 0.6352 -0.4383 -0.6359
vn 0.6354 -0.4380 -0.6359
vn 0.6349 -0.4380 -0.6365
vn 0.4772 -0.8489 -0.2274
vn 0.4773 -0.8488 -0.2274
vn 0.6352 -0.4382 -0.6360
vn 0.6353 -0.4380 -0.6361
vn -0.0000 -0.2587 0.9659
vn 0.6790 0.7092 0.1900
vn -0.6791 -0.7091 -0.1899
vn -0.6790 -0.7091 -0.1899
vn 0.1439 0.9559 0.2562
vn -0.7339 0.6561 0.1757
vn -0.6793 -0.7089 -0.1900
vn 0.6791 0.7090 0.1899
vn 0.1439 0.9558 0.2562
usemtl DarkGrey.065
s 1
f 9//7 11//7 12//7
f 11//8 14//9 12//9
f 16//10 18//10 15//11
f 19//12 21//12 22//12
f 23//9 17//9 16//9
f 15//7 23//7 16//7
f 12//9 24//9 23//9
f 9//7 23//7 25//7
f 24//12 26//12 27//12
f 24//12 18//12 17//12
f 10//13 13//13 11//13
f 13//12 26//12 14//12
f 30//14 32//15 29//16
f 34//9 36//17 33//9
f 30//13 35//13 31//13
f 32//18 33//10 29//10
f 32//7 35//7 34//7
f 29//12 36//12 30//12
f 38//7 40//7 37//7
f 42//7 44//7 41//7
f 46//7 48//7 45//7
f 49//12 51//12 52//12
f 53//12 55//12 56//12
f 57//12 59//12 60//12
f 40//18 60//19 59//20
f 43//19 55//19 44//18
f 47//20 51//19 48//18
f 58//13 38//21 37//21
f 54//13 42//13 41//13
f 50//21 46//21 45//22
f 61//7 63//7 64//7
f 66//12 68//12 65//12
f 63//23 67//24 64//23
f 66//25 62//25 61//25
f 70//7 72//7 69//7
f 73//7 75//7 76//7
f 78//7 80//7 77//7
f 81//12 83//12 84//12
f 86//12 88//12 85//12
f 71//19 21//19 72//18
f 75//18 87//18 76//10
f 79//20 83//19 80//20
f 20//13 70//22 69//26
f 86//22 74//22 73//27
f 82//13 78//13 77//22
f 9//7 10//7 11//7
f 11//8 13//8 14//9
f 16//10 17//20 18//10
f 19//12 20//12 21//12
f 23//9 24//9 17//9
f 15//7 25//7 23//7
f 12//9 14//9 24//9
f 9//7 12//7 23//7
f 24//12 14//12 26//12
f 24//12 27//12 18//12
f 10//13 28//26 13//13
f 13//12 28//12 26//12
f 30//14 31//14 32//15
f 34//9 35//17 36//17
f 30//13 36//13 35//13
f 32//18 34//18 33//10
f 32//7 31//7 35//7
f 29//12 33//12 36//12
f 38//7 39//7 40//7
f 42//7 43//7 44//7
f 46//7 47//7 48//7
f 49//12 50//12 51//12
f 53//12 54//12 55//12
f 57//12 58//12 59//12
f 40//18 39//18 60//19
f 43//19 56//19 55//19
f 47//20 52//10 51//19
f 58//13 57//22 38//21
f 54//13 53//13 42//13
f 50//21 49//13 46//21
f 61//7 62//7 63//7
f 66//12 67//12 68//12
f 63//23 68//23 67//24
f 66//25 65//25 62//25
f 70//7 71//7 72//7
f 73//7 74//7 75//7
f 78//7 79//7 80//7
f 81//12 82//12 83//12
f 86//12 87//12 88//12
f 71//19 22//10 21//19
f 75//18 88//18 87//18
f 79//20 84//19 83//19
f 20//13 19//22 70//22
f 86//22 85//13 74//22
f 82//13 81//13 78//13
usemtl Green.005
f 90//14 92//15 89//16
f 94//12 89//12 93//12
f 91//13 94//13 95//13
f 97//18 99//18 96//18
f 91//7 100//7 92//7
f 102//23 104//24 101//23
f 105//7 107//7 108//7
f 109//7 102//7 101//28
f 111//7 97//7 96//7
f 98//12 114//12 99//12
f 114//15 96//14 99//14
f 105//7 110//7 109//7
f 92//7 112//7 111//7
f 113//12 89//12 114//12
f 89//16 111//16 114//15
f 115//12 117//12 118//12
f 103//12 118//12 104//29
f 119//12 117//12 116//12
f 106//13 119//22 107//22
f 121//12 123//12 124//12
f 125//12 124//12 126//12
f 128//22 130//22 127//22
f 122//12 129//12 123//12
f 28//30 122//31 26//31
f 127//32 28//33 10//32
f 18//34 121//30 125//34
f 26//31 121//30 27//30
f 132//7 134//7 131//7
f 131//7 136//7 135//7
f 136//10 126//18 135//18
f 128//7 133//7 132//7
f 134//35 9//36 25//37
f 134//35 15//38 136//38
f 15//39 125//40 136//39
f 133//41 10//42 9//36
f 90//14 91//14 92//15
f 94//12 90//12 89//12
f 91//13 90//13 94//13
f 97//18 98//10 99//18
f 91//7 95//7 100//7
f 102//23 103//23 104//24
f 105//7 106//28 107//7
f 109//7 110//7 102//7
f 111//7 112//7 97//7
f 98//12 113//12 114//12
f 114//15 111//16 96//14
f 105//7 108//7 110//7
f 92//7 100//7 112//7
f 113//12 93//12 89//12
f 89//16 92//15 111//16
f 115//12 116//12 117//12
f 103//12 115//12 118//12
f 119//12 120//12 117//12
f 106//13 120//13 119//22
f 121//12 122//12 123//12
f 125//12 121//12 124//12
f 128//22 129//22 130//22
f 122//12 130//12 129//12
f 28//30 130//30 122//31
f 127//32 130//33 28//33
f 18//34 27//30 121//30
f 26//31 122//31 121//30
f 132//7 133//7 134//7
f 131//7 134//7 136//7
f 136//10 125//10 126//18
f 128//7 127//7 133//7
f 134//35 133//41 9//36
f 134//35 25//37 15//38
f 15//39 18//40 125//40
f 133//41 127//42 10//42
usemtl Grey.021
f 138//17 140//17 137//17
f 142//14 144//15 141//15
f 137//12 142//43 141//12
f 139//44 142//27 140//22
f 137//45 144//18 138//18
f 138//7 143//7 139//7
f 138//17 139//9 140//17
f 142//14 143//14 144//15
f 137//12 140//43 142//43
f 139//44 143//44 142//27
f 137//45 141//46 144//18
f 138//7 144//7 143//7
usemtl Gold.005
f 95//13 120//13 106//13
f 117//12 94//12 93//12
f 123//12 119//12 116//12
f 107//22 129//22 128//22
f 81//13 146//26 78//13
f 49//13 148//22 46//21
f 65//25 69//47 62//25
f 149//20 84//19 79//20
f 151//18 52//10 47//20
f 72//23 68//23 63//23
f 154//16 156//16 153//48
f 147//12 67//12 66//12
f 58//12 156//12 59//12
f 46//7 151//7 47//7
f 146//7 79//7 78//7
f 62//7 72//7 63//7
f 145//17 149//9 146//17
f 126//12 115//12 103//12
f 104//29 113//12 98//12
f 124//12 116//12 115//12
f 118//12 93//12 113//12
f 100//7 109//7 112//7
f 112//7 101//28 97//7
f 95//7 105//7 100//7
f 101//23 98//24 97//24
f 108//7 131//7 110//7
f 110//7 135//7 102//7
f 135//18 103//18 102//49
f 107//7 132//7 108//7
f 37//7 155//7 154//7
f 41//7 39//7 38//7
f 45//7 43//7 42//7
f 49//12 152//12 147//12
f 50//12 56//12 51//12
f 57//12 55//12 54//12
f 40//18 156//18 155//10
f 39//18 55//19 60//19
f 48//18 56//19 43//19
f 153//13 37//21 154//50
f 57//22 41//13 38//21
f 53//13 45//22 42//13
f 148//7 64//7 151//7
f 65//12 21//12 20//12
f 64//23 152//23 151//23
f 147//25 61//25 148//25
f 70//7 76//7 71//7
f 77//7 75//7 74//7
f 145//12 84//12 150//12
f 82//12 88//12 83//12
f 19//12 87//12 86//12
f 76//10 22//10 71//19
f 80//20 88//18 75//18
f 19//22 73//27 70//22
f 85//13 77//22 74//22
f 95//13 94//13 120//13
f 117//12 120//12 94//12
f 123//12 129//12 119//12
f 107//22 119//22 129//22
f 81//13 145//21 146//26
f 49//13 147//13 148//22
f 65//25 20//51 69//47
f 149//20 150//18 84//19
f 151//18 152//18 52//10
f 72//23 21//23 68//23
f 154//16 155//15 156//16
f 147//12 152//12 67//12
f 58//12 153//12 156//12
f 46//7 148//7 151//7
f 146//7 149//7 79//7
f 62//7 69//7 72//7
f 145//17 150//9 149//9
f 126//12 124//12 115//12
f 104//29 118//12 113//12
f 124//12 123//12 116//12
f 118//12 117//12 93//12
f 100//7 105//7 109//7
f 112//7 109//7 101//28
f 95//7 106//28 105//7
f 101//23 104//24 98//24
f 108//7 132//7 131//7
f 110//7 131//7 135//7
f 135//18 126//18 103//18
f 107//7 128//7 132//7
f 37//7 40//7 155//7
f 41//7 44//7 39//7
f 45//7 48//7 43//7
f 49//12 52//12 152//12
f 50//12 53//12 56//12
f 57//12 60//12 55//12
f 40//18 59//20 156//18
f 39//18 44//18 55//19
f 48//18 51//19 56//19
f 153//13 58//13 37//21
f 57//22 54//13 41//13
f 53//13 50//21 45//22
f 148//7 61//7 64//7
f 65//12 68//12 21//12
f 64//23 67//24 152//23
f 147//25 66//25 61//25
f 70//7 73//7 76//7
f 77//7 80//7 75//7
f 145//12 81//12 84//12
f 82//12 85//12 88//12
f 19//12 22//12 87//12
f 76//10 87//18 22//10
f 80//20 83//19 88//18
f 19//22 86//22 73//27
f 85//13 82//13 77//22
